<svg xmlns="http://www.w3.org/2000/svg" width="1035" height="400" fill="black"><rect width="100%" height="100%" fill="white" /><g transform="translate(10,10)"><line x1="65" y1="331" x2="486" y2="331" stroke="black" stroke-width="1" /><line x1="65" y1="42" x2="65" y2="331" stroke="black" stroke-width="1" /><line x1="149.2" y1="42" x2="149.2" y2="331" stroke="#ccc" stroke-width="1" /><line x1="233.4" y1="42" x2="233.4" y2="331" stroke="#ccc" stroke-width="1" /><line x1="317.6" y1="42" x2="317.6" y2="331" stroke="#ccc" stroke-width="1" /><line x1="401.8" y1="42" x2="401.8" y2="331" stroke="#ccc" stroke-width="1" /><line x1="486" y1="42" x2="486" y2="331" stroke="#ccc" stroke-width="1" /><line x1="65" y1="273.2" x2="486" y2="273.2" stroke="#ccc" stroke-width="1" /><line x1="65" y1="215.39999999999998" x2="486" y2="215.39999999999998" stroke="#ccc" stroke-width="1" /><line x1="65" y1="157.6" x2="486" y2="157.6" stroke="#ccc" stroke-width="1" /><line x1="65" y1="99.79999999999998" x2="486" y2="99.79999999999998" stroke="#ccc" stroke-width="1" /><line x1="65" y1="42" x2="486" y2="42" stroke="#ccc" stroke-width="1" /><line x1="65" y1="331" x2="65" y2="336" stroke="black" stroke-width="1" /><text x="65" y="346" font-size="10" text-anchor="middle">0</text><line x1="149.2" y1="331" x2="149.2" y2="336" stroke="black" stroke-width="1" /><text x="149.2" y="346" font-size="10" text-anchor="middle">2</text><line x1="233.4" y1="331" x2="233.4" y2="336" stroke="black" stroke-width="1" /><text x="233.4" y="346" font-size="10" text-anchor="middle">4</text><line x1="317.6" y1="331" x2="317.6" y2="336" stroke="black" stroke-width="1" /><text x="317.6" y="346" font-size="10" text-anchor="middle">6</text><line x1="401.8" y1="331" x2="401.8" y2="336" stroke="black" stroke-width="1" /><text x="401.8" y="346" font-size="10" text-anchor="middle">8</text><line x1="486" y1="331" x2="486" y2="336" stroke="black" stroke-width="1" /><text x="486" y="346" font-size="10" text-anchor="middle">10</text><line x1="60" y1="331" x2="65" y2="331" stroke="black" stroke-width="1" /><text x="57" y="334.5" font-size="10" text-anchor="end">0</text><line x1="60" y1="273.2" x2="65" y2="273.2" stroke="black" stroke-width="1" /><text x="57" y="276.7" font-size="10" text-anchor="end">2</text><line x1="60" y1="215.39999999999998" x2="65" y2="215.39999999999998" stroke="black" stroke-width="1" /><text x="57" y="218.89999999999998" font-size="10" text-anchor="end">4</text><line x1="60" y1="157.6" x2="65" y2="157.6" stroke="black" stroke-width="1" /><text x="57" y="161.1" font-size="10" text-anchor="end">6</text><line x1="60" y1="99.79999999999998" x2="65" y2="99.79999999999998" stroke="black" stroke-width="1" /><text x="57" y="103.29999999999998" font-size="10" text-anchor="end">8</text><line x1="60" y1="42" x2="65" y2="42" stroke="black" stroke-width="1" /><text x="57" y="45.5" font-size="10" text-anchor="end">10</text><text x="250" y="373" font-size="14" text-anchor="middle">X</text><text x="14" y="190" font-size="14" text-anchor="middle" transform="rotate(-90,14,190)">Y</text><text x="250" y="21" font-size="16" text-anchor="middle">Scatter</text><circle cx="107.1" cy="264.53" r="4.5" fill="steelblue" /><circle cx="153.41000000000003" cy="212.51" r="4.5" fill="steelblue" /><circle cx="208.14" cy="238.51999999999998" r="4.5" fill="steelblue" /><circle cx="241.82000000000002" cy="163.38000000000002" r="4.5" fill="steelblue" /><circle cx="275.5" cy="183.60999999999999" r="4.5" fill="steelblue" /><circle cx="330.23" cy="122.92000000000002" r="4.5" fill="steelblue" /><circle cx="363.90999999999997" cy="131.58999999999997" r="4.5" fill="steelblue" /><circle cx="422.84999999999997" cy="76.67999999999998" r="4.5" fill="steelblue" /></g><text x="18" y="28" font-size="16" text-anchor="start" font-weight="bold">A</text><g transform="translate(525,10)"><line x1="65" y1="331" x2="486" y2="331" stroke="black" stroke-width="1" /><line x1="65" y1="42" x2="65" y2="331" stroke="black" stroke-width="1" /><line x1="152.70833333333334" y1="42" x2="152.70833333333334" y2="331" stroke="#ccc" stroke-width="1" /><line x1="240.41666666666669" y1="42" x2="240.41666666666669" y2="331" stroke="#ccc" stroke-width="1" /><line x1="328.125" y1="42" x2="328.125" y2="331" stroke="#ccc" stroke-width="1" /><line x1="415.83333333333337" y1="42" x2="415.83333333333337" y2="331" stroke="#ccc" stroke-width="1" /><line x1="65" y1="289.7142857142857" x2="486" y2="289.7142857142857" stroke="#ccc" stroke-width="1" /><line x1="65" y1="248.42857142857144" x2="486" y2="248.42857142857144" stroke="#ccc" stroke-width="1" /><line x1="65" y1="207.14285714285717" x2="486" y2="207.14285714285717" stroke="#ccc" stroke-width="1" /><line x1="65" y1="165.85714285714286" x2="486" y2="165.85714285714286" stroke="#ccc" stroke-width="1" /><line x1="65" y1="124.57142857142856" x2="486" y2="124.57142857142856" stroke="#ccc" stroke-width="1" /><line x1="65" y1="83.2857142857143" x2="486" y2="83.2857142857143" stroke="#ccc" stroke-width="1" /><line x1="65" y1="42" x2="486" y2="42" stroke="#ccc" stroke-width="1" /><line x1="65" y1="331" x2="65" y2="336" stroke="black" stroke-width="1" /><text x="65" y="346" font-size="10" text-anchor="middle">0</text><line x1="152.70833333333334" y1="331" x2="152.70833333333334" y2="336" stroke="black" stroke-width="1" /><text x="152.70833333333334" y="346" font-size="10" text-anchor="middle">2.5</text><line x1="240.41666666666669" y1="331" x2="240.41666666666669" y2="336" stroke="black" stroke-width="1" /><text x="240.41666666666669" y="346" font-size="10" text-anchor="middle">5</text><line x1="328.125" y1="331" x2="328.125" y2="336" stroke="black" stroke-width="1" /><text x="328.125" y="346" font-size="10" text-anchor="middle">7.5</text><line x1="415.83333333333337" y1="331" x2="415.83333333333337" y2="336" stroke="black" stroke-width="1" /><text x="415.83333333333337" y="346" font-size="10" text-anchor="middle">10</text><line x1="60" y1="331" x2="65" y2="331" stroke="black" stroke-width="1" /><text x="57" y="334.5" font-size="10" text-anchor="end">0</text><line x1="60" y1="289.7142857142857" x2="65" y2="289.7142857142857" stroke="black" stroke-width="1" /><text x="57" y="293.2142857142857" font-size="10" text-anchor="end">1</text><line x1="60" y1="248.42857142857144" x2="65" y2="248.42857142857144" stroke="black" stroke-width="1" /><text x="57" y="251.92857142857144" font-size="10" text-anchor="end">2</text><line x1="60" y1="207.14285714285717" x2="65" y2="207.14285714285717" stroke="black" stroke-width="1" /><text x="57" y="210.64285714285717" font-size="10" text-anchor="end">3</text><line x1="60" y1="165.85714285714286" x2="65" y2="165.85714285714286" stroke="black" stroke-width="1" /><text x="57" y="169.35714285714286" font-size="10" text-anchor="end">4</text><line x1="60" y1="124.57142857142856" x2="65" y2="124.57142857142856" stroke="black" stroke-width="1" /><text x="57" y="128.07142857142856" font-size="10" text-anchor="end">5</text><line x1="60" y1="83.2857142857143" x2="65" y2="83.2857142857143" stroke="black" stroke-width="1" /><text x="57" y="86.7857142857143" font-size="10" text-anchor="end">6</text><line x1="60" y1="42" x2="65" y2="42" stroke="black" stroke-width="1" /><text x="57" y="45.5" font-size="10" text-anchor="end">7</text><text x="250" y="373" font-size="14" text-anchor="middle">Time</text><text x="14" y="190" font-size="14" text-anchor="middle" transform="rotate(-90,14,190)">Value</text><text x="250" y="21" font-size="16" text-anchor="middle">Line</text><path d="M 65 331 L 82.54166666666666 302.18240644290586 L 100.08333333333333 273.85530694417145 L 117.625 246.48964111189315 L 135.16666666666666 220.51801922786527 L 152.70833333333334 196.31747544082526 L 170.25 174.19443660474388 L 187.79166666666669 154.37250600714322 L 205.33333333333331 136.9835490116439 L 222.875 122.06243600204317 L 240.41666666666669 109.54565221015244 L 257.9583333333333 99.2738298491725 L 275.5 90.99810160443943 L 293.04166666666663 84.39002218791359 L 310.58333333333337 79.05466241534504 L 328.125 74.54635378657827 L 345.66666666666663 70.38645588226512 L 363.20833333333337 66.08243824694733 L 380.75 61.1475160240455 L 398.29166666666663 55.12005653195263 L 415.83333333333337 47.5819831022838 " stroke="crimson" stroke-width="2" fill="none" /></g><text x="533" y="28" font-size="16" text-anchor="start" font-weight="bold">B</text></svg>