<svg xmlns="http://www.w3.org/2000/svg" width="1190" height="635" fill="black"><rect width="100%" height="100%" fill="white" /><g transform="translate(10,10)"><line x1="65" y1="251" x2="275" y2="251" stroke="black" stroke-width="1" /><line x1="65" y1="42" x2="65" y2="251" stroke="black" stroke-width="1" /><line x1="108.75" y1="42" x2="108.75" y2="251" stroke="#ccc" stroke-width="1" /><line x1="152.5" y1="42" x2="152.5" y2="251" stroke="#ccc" stroke-width="1" /><line x1="196.25" y1="42" x2="196.25" y2="251" stroke="#ccc" stroke-width="1" /><line x1="240" y1="42" x2="240" y2="251" stroke="#ccc" stroke-width="1" /><line x1="65" y1="209.2" x2="275" y2="209.2" stroke="#ccc" stroke-width="1" /><line x1="65" y1="167.39999999999998" x2="275" y2="167.39999999999998" stroke="#ccc" stroke-width="1" /><line x1="65" y1="125.60000000000001" x2="275" y2="125.60000000000001" stroke="#ccc" stroke-width="1" /><line x1="65" y1="83.79999999999998" x2="275" y2="83.79999999999998" stroke="#ccc" stroke-width="1" /><line x1="65" y1="42" x2="275" y2="42" stroke="#ccc" stroke-width="1" /><line x1="65" y1="251" x2="65" y2="256" stroke="black" stroke-width="1" /><text x="65" y="266" font-size="10" text-anchor="middle">0</text><line x1="108.75" y1="251" x2="108.75" y2="256" stroke="black" stroke-width="1" /><text x="108.75" y="266" font-size="10" text-anchor="middle">2.5</text><line x1="152.5" y1="251" x2="152.5" y2="256" stroke="black" stroke-width="1" /><text x="152.5" y="266" font-size="10" text-anchor="middle">5</text><line x1="196.25" y1="251" x2="196.25" y2="256" stroke="black" stroke-width="1" /><text x="196.25" y="266" font-size="10" text-anchor="middle">7.5</text><line x1="240" y1="251" x2="240" y2="256" stroke="black" stroke-width="1" /><text x="240" y="266" font-size="10" text-anchor="middle">10</text><line x1="60" y1="251" x2="65" y2="251" stroke="black" stroke-width="1" /><text x="57" y="254.5" font-size="10" text-anchor="end">0</text><line x1="60" y1="209.2" x2="65" y2="209.2" stroke="black" stroke-width="1" /><text x="57" y="212.7" font-size="10" text-anchor="end">2.5</text><line x1="60" y1="167.39999999999998" x2="65" y2="167.39999999999998" stroke="black" stroke-width="1" /><text x="57" y="170.89999999999998" font-size="10" text-anchor="end">5</text><line x1="60" y1="125.60000000000001" x2="65" y2="125.60000000000001" stroke="black" stroke-width="1" /><text x="57" y="129.10000000000002" font-size="10" text-anchor="end">7.5</text><line x1="60" y1="83.79999999999998" x2="65" y2="83.79999999999998" stroke="black" stroke-width="1" /><text x="57" y="87.29999999999998" font-size="10" text-anchor="end">10</text><line x1="60" y1="42" x2="65" y2="42" stroke="black" stroke-width="1" /><text x="57" y="45.5" font-size="10" text-anchor="end">12.5</text><text x="190" y="21" font-size="16" text-anchor="middle">Sample A</text><path d="M 65 251 L 82.5 214.4093605387716 L 100 187.9505610291859 L 117.5 176.99027877926164 L 135 179.60599625878655 L 152.5 187.4901911339409 L 170 189.85749382951036 L 187.5 178.51721536615767 L 205 151.72555637045042 L 222.5 115.00574316780336 L 240 78.55036813884368 L 257.5 52.427654259153115 " stroke="steelblue" stroke-width="2" fill="none" /><rect x="280" y="32" width="91" height="38" fill="white" /><rect x="280" y="32" width="91" height="38" fill="none" stroke="black" stroke-width="1" /><text x="310" y="47" font-size="12" text-anchor="start">Sample A</text><line x1="290" y1="44" x2="302" y2="44" stroke="steelblue" stroke-width="2" /></g><text x="18" y="28" font-size="16" text-anchor="start" font-weight="bold">A</text><g transform="translate(405,10)"><line x1="65" y1="251" x2="275" y2="251" stroke="black" stroke-width="1" /><line x1="65" y1="42" x2="65" y2="251" stroke="black" stroke-width="1" /><line x1="108.75" y1="42" x2="108.75" y2="251" stroke="#ccc" stroke-width="1" /><line x1="152.5" y1="42" x2="152.5" y2="251" stroke="#ccc" stroke-width="1" /><line x1="196.25" y1="42" x2="196.25" y2="251" stroke="#ccc" stroke-width="1" /><line x1="240" y1="42" x2="240" y2="251" stroke="#ccc" stroke-width="1" /><line x1="65" y1="209.2" x2="275" y2="209.2" stroke="#ccc" stroke-width="1" /><line x1="65" y1="167.39999999999998" x2="275" y2="167.39999999999998" stroke="#ccc" stroke-width="1" /><line x1="65" y1="125.60000000000001" x2="275" y2="125.60000000000001" stroke="#ccc" stroke-width="1" /><line x1="65" y1="83.79999999999998" x2="275" y2="83.79999999999998" stroke="#ccc" stroke-width="1" /><line x1="65" y1="42" x2="275" y2="42" stroke="#ccc" stroke-width="1" /><line x1="65" y1="251" x2="65" y2="256" stroke="black" stroke-width="1" /><text x="65" y="266" font-size="10" text-anchor="middle">0</text><line x1="108.75" y1="251" x2="108.75" y2="256" stroke="black" stroke-width="1" /><text x="108.75" y="266" font-size="10" text-anchor="middle">2.5</text><line x1="152.5" y1="251" x2="152.5" y2="256" stroke="black" stroke-width="1" /><text x="152.5" y="266" font-size="10" text-anchor="middle">5</text><line x1="196.25" y1="251" x2="196.25" y2="256" stroke="black" stroke-width="1" /><text x="196.25" y="266" font-size="10" text-anchor="middle">7.5</text><line x1="240" y1="251" x2="240" y2="256" stroke="black" stroke-width="1" /><text x="240" y="266" font-size="10" text-anchor="middle">10</text><line x1="60" y1="251" x2="65" y2="251" stroke="black" stroke-width="1" /><text x="57" y="254.5" font-size="10" text-anchor="end">0</text><line x1="60" y1="209.2" x2="65" y2="209.2" stroke="black" stroke-width="1" /><text x="57" y="212.7" font-size="10" text-anchor="end">2.5</text><line x1="60" y1="167.39999999999998" x2="65" y2="167.39999999999998" stroke="black" stroke-width="1" /><text x="57" y="170.89999999999998" font-size="10" text-anchor="end">5</text><line x1="60" y1="125.60000000000001" x2="65" y2="125.60000000000001" stroke="black" stroke-width="1" /><text x="57" y="129.10000000000002" font-size="10" text-anchor="end">7.5</text><line x1="60" y1="83.79999999999998" x2="65" y2="83.79999999999998" stroke="black" stroke-width="1" /><text x="57" y="87.29999999999998" font-size="10" text-anchor="end">10</text><line x1="60" y1="42" x2="65" y2="42" stroke="black" stroke-width="1" /><text x="57" y="45.5" font-size="10" text-anchor="end">12.5</text><text x="190" y="21" font-size="16" text-anchor="middle">Sample B</text><path d="M 65 251 L 82.5 214.4093605387716 L 100 187.9505610291859 L 117.5 176.99027877926164 L 135 179.60599625878655 L 152.5 187.4901911339409 L 170 189.85749382951036 L 187.5 178.51721536615767 L 205 151.72555637045042 L 222.5 115.00574316780336 L 240 78.55036813884368 L 257.5 52.427654259153115 " stroke="crimson" stroke-width="2" fill="none" /><rect x="280" y="32" width="91" height="38" fill="white" /><rect x="280" y="32" width="91" height="38" fill="none" stroke="black" stroke-width="1" /><text x="310" y="47" font-size="12" text-anchor="start">Sample B</text><line x1="290" y1="44" x2="302" y2="44" stroke="crimson" stroke-width="2" /></g><text x="413" y="28" font-size="16" text-anchor="start" font-weight="bold">B</text><g transform="translate(800,10)"><line x1="65" y1="251" x2="275" y2="251" stroke="black" stroke-width="1" /><line x1="65" y1="42" x2="65" y2="251" stroke="black" stroke-width="1" /><line x1="108.75" y1="42" x2="108.75" y2="251" stroke="#ccc" stroke-width="1" /><line x1="152.5" y1="42" x2="152.5" y2="251" stroke="#ccc" stroke-width="1" /><line x1="196.25" y1="42" x2="196.25" y2="251" stroke="#ccc" stroke-width="1" /><line x1="240" y1="42" x2="240" y2="251" stroke="#ccc" stroke-width="1" /><line x1="65" y1="209.2" x2="275" y2="209.2" stroke="#ccc" stroke-width="1" /><line x1="65" y1="167.39999999999998" x2="275" y2="167.39999999999998" stroke="#ccc" stroke-width="1" /><line x1="65" y1="125.60000000000001" x2="275" y2="125.60000000000001" stroke="#ccc" stroke-width="1" /><line x1="65" y1="83.79999999999998" x2="275" y2="83.79999999999998" stroke="#ccc" stroke-width="1" /><line x1="65" y1="42" x2="275" y2="42" stroke="#ccc" stroke-width="1" /><line x1="65" y1="251" x2="65" y2="256" stroke="black" stroke-width="1" /><text x="65" y="266" font-size="10" text-anchor="middle">0</text><line x1="108.75" y1="251" x2="108.75" y2="256" stroke="black" stroke-width="1" /><text x="108.75" y="266" font-size="10" text-anchor="middle">2.5</text><line x1="152.5" y1="251" x2="152.5" y2="256" stroke="black" stroke-width="1" /><text x="152.5" y="266" font-size="10" text-anchor="middle">5</text><line x1="196.25" y1="251" x2="196.25" y2="256" stroke="black" stroke-width="1" /><text x="196.25" y="266" font-size="10" text-anchor="middle">7.5</text><line x1="240" y1="251" x2="240" y2="256" stroke="black" stroke-width="1" /><text x="240" y="266" font-size="10" text-anchor="middle">10</text><line x1="60" y1="251" x2="65" y2="251" stroke="black" stroke-width="1" /><text x="57" y="254.5" font-size="10" text-anchor="end">0</text><line x1="60" y1="209.2" x2="65" y2="209.2" stroke="black" stroke-width="1" /><text x="57" y="212.7" font-size="10" text-anchor="end">2.5</text><line x1="60" y1="167.39999999999998" x2="65" y2="167.39999999999998" stroke="black" stroke-width="1" /><text x="57" y="170.89999999999998" font-size="10" text-anchor="end">5</text><line x1="60" y1="125.60000000000001" x2="65" y2="125.60000000000001" stroke="black" stroke-width="1" /><text x="57" y="129.10000000000002" font-size="10" text-anchor="end">7.5</text><line x1="60" y1="83.79999999999998" x2="65" y2="83.79999999999998" stroke="black" stroke-width="1" /><text x="57" y="87.29999999999998" font-size="10" text-anchor="end">10</text><line x1="60" y1="42" x2="65" y2="42" stroke="black" stroke-width="1" /><text x="57" y="45.5" font-size="10" text-anchor="end">12.5</text><text x="190" y="21" font-size="16" text-anchor="middle">Sample C</text><path d="M 65 251 L 82.5 214.4093605387716 L 100 187.9505610291859 L 117.5 176.99027877926164 L 135 179.60599625878655 L 152.5 187.4901911339409 L 170 189.85749382951036 L 187.5 178.51721536615767 L 205 151.72555637045042 L 222.5 115.00574316780336 L 240 78.55036813884368 L 257.5 52.427654259153115 " stroke="seagreen" stroke-width="2" fill="none" /><rect x="280" y="32" width="91" height="38" fill="white" /><rect x="280" y="32" width="91" height="38" fill="none" stroke="black" stroke-width="1" /><text x="310" y="47" font-size="12" text-anchor="start">Sample C</text><line x1="290" y1="44" x2="302" y2="44" stroke="seagreen" stroke-width="2" /></g><text x="808" y="28" font-size="16" text-anchor="start" font-weight="bold">C</text><g transform="translate(10,325)"><line x1="65" y1="251" x2="1156" y2="251" stroke="black" stroke-width="1" /><line x1="65" y1="42" x2="65" y2="251" stroke="black" stroke-width="1" /><line x1="283.20000000000005" y1="42" x2="283.20000000000005" y2="251" stroke="#ccc" stroke-width="1" /><line x1="501.40000000000003" y1="42" x2="501.40000000000003" y2="251" stroke="#ccc" stroke-width="1" /><line x1="719.6" y1="42" x2="719.6" y2="251" stroke="#ccc" stroke-width="1" /><line x1="937.8000000000001" y1="42" x2="937.8000000000001" y2="251" stroke="#ccc" stroke-width="1" /><line x1="1156" y1="42" x2="1156" y2="251" stroke="#ccc" stroke-width="1" /><line x1="65" y1="216.16666666666669" x2="1156" y2="216.16666666666669" stroke="#ccc" stroke-width="1" /><line x1="65" y1="181.33333333333334" x2="1156" y2="181.33333333333334" stroke="#ccc" stroke-width="1" /><line x1="65" y1="146.5" x2="1156" y2="146.5" stroke="#ccc" stroke-width="1" /><line x1="65" y1="111.66666666666669" x2="1156" y2="111.66666666666669" stroke="#ccc" stroke-width="1" /><line x1="65" y1="76.83333333333331" x2="1156" y2="76.83333333333331" stroke="#ccc" stroke-width="1" /><line x1="65" y1="42" x2="1156" y2="42" stroke="#ccc" stroke-width="1" /><line x1="65" y1="251" x2="65" y2="256" stroke="black" stroke-width="1" /><text x="65" y="266" font-size="10" text-anchor="middle">0</text><line x1="283.20000000000005" y1="251" x2="283.20000000000005" y2="256" stroke="black" stroke-width="1" /><text x="283.20000000000005" y="266" font-size="10" text-anchor="middle">2</text><line x1="501.40000000000003" y1="251" x2="501.40000000000003" y2="256" stroke="black" stroke-width="1" /><text x="501.40000000000003" y="266" font-size="10" text-anchor="middle">4</text><line x1="719.6" y1="251" x2="719.6" y2="256" stroke="black" stroke-width="1" /><text x="719.6" y="266" font-size="10" text-anchor="middle">6</text><line x1="937.8000000000001" y1="251" x2="937.8000000000001" y2="256" stroke="black" stroke-width="1" /><text x="937.8000000000001" y="266" font-size="10" text-anchor="middle">8</text><line x1="1156" y1="251" x2="1156" y2="256" stroke="black" stroke-width="1" /><text x="1156" y="266" font-size="10" text-anchor="middle">10</text><line x1="60" y1="251" x2="65" y2="251" stroke="black" stroke-width="1" /><text x="57" y="254.5" font-size="10" text-anchor="end">-1</text><line x1="60" y1="216.16666666666669" x2="65" y2="216.16666666666669" stroke="black" stroke-width="1" /><text x="57" y="219.66666666666669" font-size="10" text-anchor="end">0</text><line x1="60" y1="181.33333333333334" x2="65" y2="181.33333333333334" stroke="black" stroke-width="1" /><text x="57" y="184.83333333333334" font-size="10" text-anchor="end">1</text><line x1="60" y1="146.5" x2="65" y2="146.5" stroke="black" stroke-width="1" /><text x="57" y="150" font-size="10" text-anchor="end">2</text><line x1="60" y1="111.66666666666669" x2="65" y2="111.66666666666669" stroke="black" stroke-width="1" /><text x="57" y="115.16666666666669" font-size="10" text-anchor="end">3</text><line x1="60" y1="76.83333333333331" x2="65" y2="76.83333333333331" stroke="black" stroke-width="1" /><text x="57" y="80.33333333333331" font-size="10" text-anchor="end">4</text><line x1="60" y1="42" x2="65" y2="42" stroke="black" stroke-width="1" /><text x="57" y="45.5" font-size="10" text-anchor="end">5</text><text x="585" y="293" font-size="14" text-anchor="middle">Time</text><text x="14" y="150" font-size="14" text-anchor="middle" transform="rotate(-90,14,150)">Value</text><text x="585" y="21" font-size="16" text-anchor="middle">Combined</text><path d="M 65 216.16666666666669 L 92.275 200.52565702791037 L 119.55000000000001 185.08795292456904 L 146.825 170.0536873771747 L 174.10000000000002 155.61669788252746 L 201.375 141.96150164438836 L 228.65 129.26041624422822 L 255.92499999999998 117.67087068300185 L 283.20000000000005 107.33294875424147 L 310.475 98.36720308331124 L 337.75 90.87277394400792 L 365.02500000000003 84.92584220774688 L 392.3 80.57844056654298 L 419.575 77.85764158025427 L 446.84999999999997 76.76513521834028 L 474.125 77.27720248845367 L 501.40000000000003 79.34508556338292 L 528.675 82.89574863063842 L 555.95 87.8330175918789 L 583.225 94.03908082754978 L 610.5 101.37632760780323 L 637.775 109.68949546191237 L 665.0500000000001 118.808092997198 L 692.3249999999999 128.54906036018917 L 719.6 138.71962582441057 L 746.875 149.12031392869983 L 774.15 159.54805822506302 L 801.4250000000001 169.79937006267795 L 828.6999999999999 179.67351396023193 L 855.975 188.97564001596982 L 883.25 197.5198244752416 L 910.525 205.13197100851008 L 937.8000000000001 211.65252742634516 L 965.0749999999999 216.93897543797632 L 992.35 220.86805460155364 L 1019.625 223.33768576211725 L 1046.9 224.2685639626693 L 1074.1750000000002 223.60539597150375 L 1101.45 221.31776311459367 L 1128.725 217.40059594882575 " stroke="darkorange" stroke-width="2" fill="none" /></g><text x="18" y="343" font-size="16" text-anchor="start" font-weight="bold">D</text></svg>