<svg xmlns="http://www.w3.org/2000/svg" width="875" height="675" fill="black"><rect width="100%" height="100%" fill="white" /><g transform="translate(10,10)"><line x1="65" y1="271" x2="406" y2="271" stroke="black" stroke-width="1" /><line x1="65" y1="42" x2="65" y2="271" stroke="black" stroke-width="1" /><line x1="133.2" y1="42" x2="133.2" y2="271" stroke="#ccc" stroke-width="1" /><line x1="201.4" y1="42" x2="201.4" y2="271" stroke="#ccc" stroke-width="1" /><line x1="269.6" y1="42" x2="269.6" y2="271" stroke="#ccc" stroke-width="1" /><line x1="337.8" y1="42" x2="337.8" y2="271" stroke="#ccc" stroke-width="1" /><line x1="406" y1="42" x2="406" y2="271" stroke="#ccc" stroke-width="1" /><line x1="65" y1="223.29166666666666" x2="406" y2="223.29166666666666" stroke="#ccc" stroke-width="1" /><line x1="65" y1="175.58333333333331" x2="406" y2="175.58333333333331" stroke="#ccc" stroke-width="1" /><line x1="65" y1="127.875" x2="406" y2="127.875" stroke="#ccc" stroke-width="1" /><line x1="65" y1="80.16666666666666" x2="406" y2="80.16666666666666" stroke="#ccc" stroke-width="1" /><line x1="65" y1="271" x2="65" y2="276" stroke="black" stroke-width="1" /><text x="65" y="286" font-size="10" text-anchor="middle">0</text><line x1="133.2" y1="271" x2="133.2" y2="276" stroke="black" stroke-width="1" /><text x="133.2" y="286" font-size="10" text-anchor="middle">2</text><line x1="201.4" y1="271" x2="201.4" y2="276" stroke="black" stroke-width="1" /><text x="201.4" y="286" font-size="10" text-anchor="middle">4</text><line x1="269.6" y1="271" x2="269.6" y2="276" stroke="black" stroke-width="1" /><text x="269.6" y="286" font-size="10" text-anchor="middle">6</text><line x1="337.8" y1="271" x2="337.8" y2="276" stroke="black" stroke-width="1" /><text x="337.8" y="286" font-size="10" text-anchor="middle">8</text><line x1="406" y1="271" x2="406" y2="276" stroke="black" stroke-width="1" /><text x="406" y="286" font-size="10" text-anchor="middle">10</text><line x1="60" y1="271" x2="65" y2="271" stroke="black" stroke-width="1" /><text x="57" y="274.5" font-size="10" text-anchor="end">0</text><line x1="60" y1="223.29166666666666" x2="65" y2="223.29166666666666" stroke="black" stroke-width="1" /><text x="57" y="226.79166666666666" font-size="10" text-anchor="end">2.5</text><line x1="60" y1="175.58333333333331" x2="65" y2="175.58333333333331" stroke="black" stroke-width="1" /><text x="57" y="179.08333333333331" font-size="10" text-anchor="end">5</text><line x1="60" y1="127.875" x2="65" y2="127.875" stroke="black" stroke-width="1" /><text x="57" y="131.375" font-size="10" text-anchor="end">7.5</text><line x1="60" y1="80.16666666666666" x2="65" y2="80.16666666666666" stroke="black" stroke-width="1" /><text x="57" y="83.66666666666666" font-size="10" text-anchor="end">10</text><text x="14" y="160" font-size="14" text-anchor="middle" transform="rotate(-90,14,160)">Value</text><text x="210" y="21" font-size="16" text-anchor="middle">Group A — rep 1</text><circle cx="65" cy="271" r="4.5" fill="steelblue" /><circle cx="99.1" cy="240.85929597163647" r="4.5" fill="steelblue" /><circle cx="133.2" cy="212.9585953732493" r="4.5" fill="steelblue" /><circle cx="167.3" cy="188.98947067230597" r="4.5" fill="steelblue" /><circle cx="201.4" cy="169.68090743807656" r="4.5" fill="steelblue" /><circle cx="235.5" cy="154.62082325001617" r="4.5" fill="steelblue" /><circle cx="269.6" cy="142.35695984619085" r="4.5" fill="steelblue" /><circle cx="303.7" cy="130.7524465950769" r="4.5" fill="steelblue" /><circle cx="337.8" cy="117.50898095212631" r="4.5" fill="steelblue" /><circle cx="371.90000000000003" cy="100.7295330787756" r="4.5" fill="steelblue" /></g><g transform="translate(445,10)"><line x1="10" y1="271" x2="406" y2="271" stroke="black" stroke-width="1" /><line x1="10" y1="42" x2="10" y2="271" stroke="black" stroke-width="1" /><line x1="89.2" y1="42" x2="89.2" y2="271" stroke="#ccc" stroke-width="1" /><line x1="168.4" y1="42" x2="168.4" y2="271" stroke="#ccc" stroke-width="1" /><line x1="247.6" y1="42" x2="247.6" y2="271" stroke="#ccc" stroke-width="1" /><line x1="326.8" y1="42" x2="326.8" y2="271" stroke="#ccc" stroke-width="1" /><line x1="406" y1="42" x2="406" y2="271" stroke="#ccc" stroke-width="1" /><line x1="10" y1="223.29166666666666" x2="406" y2="223.29166666666666" stroke="#ccc" stroke-width="1" /><line x1="10" y1="175.58333333333331" x2="406" y2="175.58333333333331" stroke="#ccc" stroke-width="1" /><line x1="10" y1="127.875" x2="406" y2="127.875" stroke="#ccc" stroke-width="1" /><line x1="10" y1="80.16666666666666" x2="406" y2="80.16666666666666" stroke="#ccc" stroke-width="1" /><line x1="10" y1="271" x2="10" y2="276" stroke="black" stroke-width="1" /><text x="10" y="286" font-size="10" text-anchor="middle">0</text><line x1="89.2" y1="271" x2="89.2" y2="276" stroke="black" stroke-width="1" /><text x="89.2" y="286" font-size="10" text-anchor="middle">2</text><line x1="168.4" y1="271" x2="168.4" y2="276" stroke="black" stroke-width="1" /><text x="168.4" y="286" font-size="10" text-anchor="middle">4</text><line x1="247.6" y1="271" x2="247.6" y2="276" stroke="black" stroke-width="1" /><text x="247.6" y="286" font-size="10" text-anchor="middle">6</text><line x1="326.8" y1="271" x2="326.8" y2="276" stroke="black" stroke-width="1" /><text x="326.8" y="286" font-size="10" text-anchor="middle">8</text><line x1="406" y1="271" x2="406" y2="276" stroke="black" stroke-width="1" /><text x="406" y="286" font-size="10" text-anchor="middle">10</text><text x="210" y="21" font-size="16" text-anchor="middle">Group A — rep 2</text><circle cx="10" cy="242.375" r="4.5" fill="steelblue" /><circle cx="49.6" cy="212.23429597163647" r="4.5" fill="steelblue" /><circle cx="89.2" cy="184.3335953732493" r="4.5" fill="steelblue" /><circle cx="128.8" cy="160.36447067230597" r="4.5" fill="steelblue" /><circle cx="168.4" cy="141.05590743807656" r="4.5" fill="steelblue" /><circle cx="208" cy="125.99582325001617" r="4.5" fill="steelblue" /><circle cx="247.6" cy="113.73195984619085" r="4.5" fill="steelblue" /><circle cx="287.2" cy="102.12744659507689" r="4.5" fill="steelblue" /><circle cx="326.8" cy="88.88398095212631" r="4.5" fill="steelblue" /><circle cx="366.40000000000003" cy="72.1045330787756" r="4.5" fill="steelblue" /></g><g transform="translate(10,345)"><line x1="65" y1="271" x2="406" y2="271" stroke="black" stroke-width="1" /><line x1="65" y1="42" x2="65" y2="271" stroke="black" stroke-width="1" /><line x1="133.2" y1="42" x2="133.2" y2="271" stroke="#ccc" stroke-width="1" /><line x1="201.4" y1="42" x2="201.4" y2="271" stroke="#ccc" stroke-width="1" /><line x1="269.6" y1="42" x2="269.6" y2="271" stroke="#ccc" stroke-width="1" /><line x1="337.8" y1="42" x2="337.8" y2="271" stroke="#ccc" stroke-width="1" /><line x1="406" y1="42" x2="406" y2="271" stroke="#ccc" stroke-width="1" /><line x1="65" y1="225.2" x2="406" y2="225.2" stroke="#ccc" stroke-width="1" /><line x1="65" y1="179.39999999999998" x2="406" y2="179.39999999999998" stroke="#ccc" stroke-width="1" /><line x1="65" y1="133.6" x2="406" y2="133.6" stroke="#ccc" stroke-width="1" /><line x1="65" y1="87.79999999999998" x2="406" y2="87.79999999999998" stroke="#ccc" stroke-width="1" /><line x1="65" y1="42" x2="406" y2="42" stroke="#ccc" stroke-width="1" /><line x1="65" y1="271" x2="65" y2="276" stroke="black" stroke-width="1" /><text x="65" y="286" font-size="10" text-anchor="middle">0</text><line x1="133.2" y1="271" x2="133.2" y2="276" stroke="black" stroke-width="1" /><text x="133.2" y="286" font-size="10" text-anchor="middle">2</text><line x1="201.4" y1="271" x2="201.4" y2="276" stroke="black" stroke-width="1" /><text x="201.4" y="286" font-size="10" text-anchor="middle">4</text><line x1="269.6" y1="271" x2="269.6" y2="276" stroke="black" stroke-width="1" /><text x="269.6" y="286" font-size="10" text-anchor="middle">6</text><line x1="337.8" y1="271" x2="337.8" y2="276" stroke="black" stroke-width="1" /><text x="337.8" y="286" font-size="10" text-anchor="middle">8</text><line x1="406" y1="271" x2="406" y2="276" stroke="black" stroke-width="1" /><text x="406" y="286" font-size="10" text-anchor="middle">10</text><line x1="60" y1="271" x2="65" y2="271" stroke="black" stroke-width="1" /><text x="57" y="274.5" font-size="10" text-anchor="end">0</text><line x1="60" y1="225.2" x2="65" y2="225.2" stroke="black" stroke-width="1" /><text x="57" y="228.7" font-size="10" text-anchor="end">5</text><line x1="60" y1="179.39999999999998" x2="65" y2="179.39999999999998" stroke="black" stroke-width="1" /><text x="57" y="182.89999999999998" font-size="10" text-anchor="end">10</text><line x1="60" y1="133.6" x2="65" y2="133.6" stroke="black" stroke-width="1" /><text x="57" y="137.1" font-size="10" text-anchor="end">15</text><line x1="60" y1="87.79999999999998" x2="65" y2="87.79999999999998" stroke="black" stroke-width="1" /><text x="57" y="91.29999999999998" font-size="10" text-anchor="end">20</text><line x1="60" y1="42" x2="65" y2="42" stroke="black" stroke-width="1" /><text x="57" y="45.5" font-size="10" text-anchor="end">25</text><text x="210" y="313" font-size="14" text-anchor="middle">X</text><text x="14" y="160" font-size="14" text-anchor="middle" transform="rotate(-90,14,160)">Value</text><text x="210" y="21" font-size="16" text-anchor="middle">Group B — rep 1</text><circle cx="65" cy="179.39999999999998" r="4.5" fill="crimson" /><circle cx="99.1" cy="164.9324620663855" r="4.5" fill="crimson" /><circle cx="133.2" cy="151.54012577915967" r="4.5" fill="crimson" /><circle cx="167.3" cy="140.03494592270684" r="4.5" fill="crimson" /><circle cx="201.4" cy="130.76683557027675" r="4.5" fill="crimson" /><circle cx="235.5" cy="123.53799516000774" r="4.5" fill="crimson" /><circle cx="269.6" cy="117.65134072617158" r="4.5" fill="crimson" /><circle cx="303.7" cy="112.08117436563685" r="4.5" fill="crimson" /><circle cx="337.8" cy="105.72431085702061" r="4.5" fill="crimson" /><circle cx="371.90000000000003" cy="97.67017587781228" r="4.5" fill="crimson" /></g><g transform="translate(445,345)"><line x1="10" y1="271" x2="406" y2="271" stroke="black" stroke-width="1" /><line x1="10" y1="42" x2="10" y2="271" stroke="black" stroke-width="1" /><line x1="89.2" y1="42" x2="89.2" y2="271" stroke="#ccc" stroke-width="1" /><line x1="168.4" y1="42" x2="168.4" y2="271" stroke="#ccc" stroke-width="1" /><line x1="247.6" y1="42" x2="247.6" y2="271" stroke="#ccc" stroke-width="1" /><line x1="326.8" y1="42" x2="326.8" y2="271" stroke="#ccc" stroke-width="1" /><line x1="406" y1="42" x2="406" y2="271" stroke="#ccc" stroke-width="1" /><line x1="10" y1="225.2" x2="406" y2="225.2" stroke="#ccc" stroke-width="1" /><line x1="10" y1="179.39999999999998" x2="406" y2="179.39999999999998" stroke="#ccc" stroke-width="1" /><line x1="10" y1="133.6" x2="406" y2="133.6" stroke="#ccc" stroke-width="1" /><line x1="10" y1="87.79999999999998" x2="406" y2="87.79999999999998" stroke="#ccc" stroke-width="1" /><line x1="10" y1="42" x2="406" y2="42" stroke="#ccc" stroke-width="1" /><line x1="10" y1="271" x2="10" y2="276" stroke="black" stroke-width="1" /><text x="10" y="286" font-size="10" text-anchor="middle">0</text><line x1="89.2" y1="271" x2="89.2" y2="276" stroke="black" stroke-width="1" /><text x="89.2" y="286" font-size="10" text-anchor="middle">2</text><line x1="168.4" y1="271" x2="168.4" y2="276" stroke="black" stroke-width="1" /><text x="168.4" y="286" font-size="10" text-anchor="middle">4</text><line x1="247.6" y1="271" x2="247.6" y2="276" stroke="black" stroke-width="1" /><text x="247.6" y="286" font-size="10" text-anchor="middle">6</text><line x1="326.8" y1="271" x2="326.8" y2="276" stroke="black" stroke-width="1" /><text x="326.8" y="286" font-size="10" text-anchor="middle">8</text><line x1="406" y1="271" x2="406" y2="276" stroke="black" stroke-width="1" /><text x="406" y="286" font-size="10" text-anchor="middle">10</text><text x="210" y="313" font-size="14" text-anchor="middle">X</text><text x="210" y="21" font-size="16" text-anchor="middle">Group B — rep 2</text><circle cx="10" cy="170.24" r="4.5" fill="crimson" /><circle cx="49.6" cy="155.77246206638551" r="4.5" fill="crimson" /><circle cx="89.2" cy="142.38012577915967" r="4.5" fill="crimson" /><circle cx="128.8" cy="130.87494592270687" r="4.5" fill="crimson" /><circle cx="168.4" cy="121.60683557027673" r="4.5" fill="crimson" /><circle cx="208" cy="114.37799516000774" r="4.5" fill="crimson" /><circle cx="247.6" cy="108.49134072617161" r="4.5" fill="crimson" /><circle cx="287.2" cy="102.92117436563689" r="4.5" fill="crimson" /><circle cx="326.8" cy="96.56431085702059" r="4.5" fill="crimson" /><circle cx="366.40000000000003" cy="88.51017587781232" r="4.5" fill="crimson" /></g></svg>