<svg xmlns="http://www.w3.org/2000/svg" width="993" height="360" fill="black"><rect width="100%" height="100%" fill="white" /><g transform="translate(10,10)"><line x1="65" y1="291" x2="406" y2="291" stroke="black" stroke-width="1" /><line x1="65" y1="42" x2="65" y2="291" stroke="black" stroke-width="1" /><line x1="150.25" y1="42" x2="150.25" y2="291" stroke="#ccc" stroke-width="1" /><line x1="235.5" y1="42" x2="235.5" y2="291" stroke="#ccc" stroke-width="1" /><line x1="320.75" y1="42" x2="320.75" y2="291" stroke="#ccc" stroke-width="1" /><line x1="406" y1="42" x2="406" y2="291" stroke="#ccc" stroke-width="1" /><line x1="65" y1="239.125" x2="406" y2="239.125" stroke="#ccc" stroke-width="1" /><line x1="65" y1="187.25" x2="406" y2="187.25" stroke="#ccc" stroke-width="1" /><line x1="65" y1="135.375" x2="406" y2="135.375" stroke="#ccc" stroke-width="1" /><line x1="65" y1="83.5" x2="406" y2="83.5" stroke="#ccc" stroke-width="1" /><line x1="65" y1="291" x2="65" y2="296" stroke="black" stroke-width="1" /><text x="65" y="306" font-size="10" text-anchor="middle">0</text><line x1="150.25" y1="291" x2="150.25" y2="296" stroke="black" stroke-width="1" /><text x="150.25" y="306" font-size="10" text-anchor="middle">2</text><line x1="235.5" y1="291" x2="235.5" y2="296" stroke="black" stroke-width="1" /><text x="235.5" y="306" font-size="10" text-anchor="middle">4</text><line x1="320.75" y1="291" x2="320.75" y2="296" stroke="black" stroke-width="1" /><text x="320.75" y="306" font-size="10" text-anchor="middle">6</text><line x1="406" y1="291" x2="406" y2="296" stroke="black" stroke-width="1" /><text x="406" y="306" font-size="10" text-anchor="middle">8</text><line x1="60" y1="291" x2="65" y2="291" stroke="black" stroke-width="1" /><text x="57" y="294.5" font-size="10" text-anchor="end">0</text><line x1="60" y1="239.125" x2="65" y2="239.125" stroke="black" stroke-width="1" /><text x="57" y="242.625" font-size="10" text-anchor="end">2.5</text><line x1="60" y1="187.25" x2="65" y2="187.25" stroke="black" stroke-width="1" /><text x="57" y="190.75" font-size="10" text-anchor="end">5</text><line x1="60" y1="135.375" x2="65" y2="135.375" stroke="black" stroke-width="1" /><text x="57" y="138.875" font-size="10" text-anchor="end">7.5</text><line x1="60" y1="83.5" x2="65" y2="83.5" stroke="black" stroke-width="1" /><text x="57" y="87" font-size="10" text-anchor="end">10</text><text x="210" y="333" font-size="14" text-anchor="middle">Time</text><text x="14" y="170" font-size="14" text-anchor="middle" transform="rotate(-90,14,170)">Response</text><text x="210" y="21" font-size="16" text-anchor="middle">Experiment 1</text><circle cx="65" cy="270.25" r="4.5" fill="steelblue" /><circle cx="107.625" cy="251.575" r="4.5" fill="steelblue" /><circle cx="150.25" cy="232.9" r="4.5" fill="steelblue" /><circle cx="192.875" cy="214.225" r="4.5" fill="steelblue" /><circle cx="235.5" cy="195.55" r="4.5" fill="steelblue" /><circle cx="278.125" cy="176.875" r="4.5" fill="steelblue" /><circle cx="320.75" cy="158.2" r="4.5" fill="steelblue" /><circle cx="363.375" cy="139.525" r="4.5" fill="steelblue" /><circle cx="65" cy="280.625" r="4.5" fill="crimson" /><circle cx="107.625" cy="251.575" r="4.5" fill="crimson" /><circle cx="150.25" cy="222.525" r="4.5" fill="crimson" /><circle cx="192.875" cy="193.47500000000002" r="4.5" fill="crimson" /><circle cx="235.5" cy="164.425" r="4.5" fill="crimson" /><circle cx="278.125" cy="135.375" r="4.5" fill="crimson" /><circle cx="320.75" cy="106.32500000000002" r="4.5" fill="crimson" /><circle cx="363.375" cy="77.275" r="4.5" fill="crimson" /></g><g transform="translate(445,10)"><line x1="65" y1="291" x2="406" y2="291" stroke="black" stroke-width="1" /><line x1="65" y1="42" x2="65" y2="291" stroke="black" stroke-width="1" /><line x1="150.25" y1="42" x2="150.25" y2="291" stroke="#ccc" stroke-width="1" /><line x1="235.5" y1="42" x2="235.5" y2="291" stroke="#ccc" stroke-width="1" /><line x1="320.75" y1="42" x2="320.75" y2="291" stroke="#ccc" stroke-width="1" /><line x1="406" y1="42" x2="406" y2="291" stroke="#ccc" stroke-width="1" /><line x1="65" y1="239.125" x2="406" y2="239.125" stroke="#ccc" stroke-width="1" /><line x1="65" y1="187.25" x2="406" y2="187.25" stroke="#ccc" stroke-width="1" /><line x1="65" y1="135.375" x2="406" y2="135.375" stroke="#ccc" stroke-width="1" /><line x1="65" y1="83.5" x2="406" y2="83.5" stroke="#ccc" stroke-width="1" /><line x1="65" y1="291" x2="65" y2="296" stroke="black" stroke-width="1" /><text x="65" y="306" font-size="10" text-anchor="middle">0</text><line x1="150.25" y1="291" x2="150.25" y2="296" stroke="black" stroke-width="1" /><text x="150.25" y="306" font-size="10" text-anchor="middle">2</text><line x1="235.5" y1="291" x2="235.5" y2="296" stroke="black" stroke-width="1" /><text x="235.5" y="306" font-size="10" text-anchor="middle">4</text><line x1="320.75" y1="291" x2="320.75" y2="296" stroke="black" stroke-width="1" /><text x="320.75" y="306" font-size="10" text-anchor="middle">6</text><line x1="406" y1="291" x2="406" y2="296" stroke="black" stroke-width="1" /><text x="406" y="306" font-size="10" text-anchor="middle">8</text><line x1="60" y1="291" x2="65" y2="291" stroke="black" stroke-width="1" /><text x="57" y="294.5" font-size="10" text-anchor="end">0</text><line x1="60" y1="239.125" x2="65" y2="239.125" stroke="black" stroke-width="1" /><text x="57" y="242.625" font-size="10" text-anchor="end">2.5</text><line x1="60" y1="187.25" x2="65" y2="187.25" stroke="black" stroke-width="1" /><text x="57" y="190.75" font-size="10" text-anchor="end">5</text><line x1="60" y1="135.375" x2="65" y2="135.375" stroke="black" stroke-width="1" /><text x="57" y="138.875" font-size="10" text-anchor="end">7.5</text><line x1="60" y1="83.5" x2="65" y2="83.5" stroke="black" stroke-width="1" /><text x="57" y="87" font-size="10" text-anchor="end">10</text><text x="210" y="333" font-size="14" text-anchor="middle">Time</text><text x="210" y="21" font-size="16" text-anchor="middle">Experiment 2</text><circle cx="86.3125" cy="260.9125" r="4.5" fill="steelblue" /><circle cx="128.9375" cy="242.2375" r="4.5" fill="steelblue" /><circle cx="171.5625" cy="223.5625" r="4.5" fill="steelblue" /><circle cx="214.1875" cy="204.8875" r="4.5" fill="steelblue" /><circle cx="256.8125" cy="186.2125" r="4.5" fill="steelblue" /><circle cx="299.4375" cy="167.5375" r="4.5" fill="steelblue" /><circle cx="342.0625" cy="148.86249999999998" r="4.5" fill="steelblue" /><circle cx="384.6875" cy="130.1875" r="4.5" fill="steelblue" /><circle cx="86.3125" cy="266.1" r="4.5" fill="crimson" /><circle cx="128.9375" cy="237.05" r="4.5" fill="crimson" /><circle cx="171.5625" cy="208" r="4.5" fill="crimson" /><circle cx="214.1875" cy="178.95000000000002" r="4.5" fill="crimson" /><circle cx="256.8125" cy="149.9" r="4.5" fill="crimson" /><circle cx="299.4375" cy="120.85000000000002" r="4.5" fill="crimson" /><circle cx="342.0625" cy="91.80000000000001" r="4.5" fill="crimson" /><circle cx="384.6875" cy="62.75" r="4.5" fill="crimson" /></g><rect x="880" y="152" width="98" height="56" fill="white" /><rect x="880" y="152" width="98" height="56" fill="none" stroke="black" stroke-width="1" /><text x="910" y="167" font-size="12" text-anchor="start">Control</text><circle cx="896" cy="163" r="5" fill="steelblue" /><text x="910" y="185" font-size="12" text-anchor="start">Treatment</text><circle cx="896" cy="181" r="5" fill="crimson" /></svg>