<svg xmlns="http://www.w3.org/2000/svg" width="875" height="675" fill="black"><rect width="100%" height="100%" fill="white" /><g transform="translate(10,10)"><line x1="65" y1="606" x2="406" y2="606" stroke="black" stroke-width="1" /><line x1="65" y1="42" x2="65" y2="606" stroke="black" stroke-width="1" /><line x1="133.2" y1="42" x2="133.2" y2="606" stroke="#ccc" stroke-width="1" /><line x1="201.4" y1="42" x2="201.4" y2="606" stroke="#ccc" stroke-width="1" /><line x1="269.6" y1="42" x2="269.6" y2="606" stroke="#ccc" stroke-width="1" /><line x1="337.8" y1="42" x2="337.8" y2="606" stroke="#ccc" stroke-width="1" /><line x1="406" y1="42" x2="406" y2="606" stroke="#ccc" stroke-width="1" /><line x1="65" y1="493.2" x2="406" y2="493.2" stroke="#ccc" stroke-width="1" /><line x1="65" y1="380.4" x2="406" y2="380.4" stroke="#ccc" stroke-width="1" /><line x1="65" y1="267.6" x2="406" y2="267.6" stroke="#ccc" stroke-width="1" /><line x1="65" y1="154.79999999999995" x2="406" y2="154.79999999999995" stroke="#ccc" stroke-width="1" /><line x1="65" y1="42" x2="406" y2="42" stroke="#ccc" stroke-width="1" /><line x1="65" y1="606" x2="65" y2="611" stroke="black" stroke-width="1" /><text x="65" y="621" font-size="10" text-anchor="middle">0</text><line x1="133.2" y1="606" x2="133.2" y2="611" stroke="black" stroke-width="1" /><text x="133.2" y="621" font-size="10" text-anchor="middle">2</text><line x1="201.4" y1="606" x2="201.4" y2="611" stroke="black" stroke-width="1" /><text x="201.4" y="621" font-size="10" text-anchor="middle">4</text><line x1="269.6" y1="606" x2="269.6" y2="611" stroke="black" stroke-width="1" /><text x="269.6" y="621" font-size="10" text-anchor="middle">6</text><line x1="337.8" y1="606" x2="337.8" y2="611" stroke="black" stroke-width="1" /><text x="337.8" y="621" font-size="10" text-anchor="middle">8</text><line x1="406" y1="606" x2="406" y2="611" stroke="black" stroke-width="1" /><text x="406" y="621" font-size="10" text-anchor="middle">10</text><line x1="60" y1="606" x2="65" y2="606" stroke="black" stroke-width="1" /><text x="57" y="609.5" font-size="10" text-anchor="end">-2</text><line x1="60" y1="493.2" x2="65" y2="493.2" stroke="black" stroke-width="1" /><text x="57" y="496.7" font-size="10" text-anchor="end">0</text><line x1="60" y1="380.4" x2="65" y2="380.4" stroke="black" stroke-width="1" /><text x="57" y="383.9" font-size="10" text-anchor="end">2</text><line x1="60" y1="267.6" x2="65" y2="267.6" stroke="black" stroke-width="1" /><text x="57" y="271.1" font-size="10" text-anchor="end">4</text><line x1="60" y1="154.79999999999995" x2="65" y2="154.79999999999995" stroke="black" stroke-width="1" /><text x="57" y="158.29999999999995" font-size="10" text-anchor="end">6</text><line x1="60" y1="42" x2="65" y2="42" stroke="black" stroke-width="1" /><text x="57" y="45.5" font-size="10" text-anchor="end">8</text><text x="210" y="648" font-size="14" text-anchor="middle">Time</text><text x="14" y="327.5" font-size="14" text-anchor="middle" transform="rotate(-90,14,327.5)">Value</text><text x="210" y="21" font-size="16" text-anchor="middle">Full Series</text><path d="M 65 352.2 L 75.23 346.0893455458638 L 85.46000000000001 347.8297158881209 L 95.69 356.7393921911338 L 105.92 371.7256819637836 L 116.15 391.3475566187891 L 126.38 413.89825706792146 L 136.61 437.5031320658219 L 146.84 460.22710081227666 L 157.07 480.18557962133633 L 167.3 495.65251389131566 L 177.52999999999997 505.1593225455937 L 187.76 507.57908304811446 L 197.99 502.19113116752294 L 208.22000000000003 488.7223723698098 L 218.45000000000002 467.36293670311477 L 228.68 438.75527977328386 L 238.91 403.9573545864074 L 249.14 364.3819653974881 L 259.37 321.71578004826796 L 269.6 277.822643335038 L 279.83000000000004 234.63673387578922 L 290.05999999999995 194.05168915783514 L 300.28999999999996 157.8120545672466 L 310.52 127.41327898139633 L 320.75 104.0159895822984 L 330.98 88.37946000565103 L 341.21 80.81808570075543 L 351.44000000000005 81.18336150996743 L 361.66999999999996 88.87239458582371 " stroke="steelblue" stroke-width="2" fill="none" /></g><text x="18" y="28" font-size="16" text-anchor="start" font-weight="bold">A</text><g transform="translate(445,10)"><line x1="65" y1="271" x2="406" y2="271" stroke="black" stroke-width="1" /><line x1="65" y1="42" x2="65" y2="271" stroke="black" stroke-width="1" /><line x1="133.2" y1="42" x2="133.2" y2="271" stroke="#ccc" stroke-width="1" /><line x1="201.4" y1="42" x2="201.4" y2="271" stroke="#ccc" stroke-width="1" /><line x1="269.6" y1="42" x2="269.6" y2="271" stroke="#ccc" stroke-width="1" /><line x1="337.8" y1="42" x2="337.8" y2="271" stroke="#ccc" stroke-width="1" /><line x1="406" y1="42" x2="406" y2="271" stroke="#ccc" stroke-width="1" /><line x1="65" y1="223.29166666666666" x2="406" y2="223.29166666666666" stroke="#ccc" stroke-width="1" /><line x1="65" y1="175.58333333333331" x2="406" y2="175.58333333333331" stroke="#ccc" stroke-width="1" /><line x1="65" y1="127.875" x2="406" y2="127.875" stroke="#ccc" stroke-width="1" /><line x1="65" y1="80.16666666666666" x2="406" y2="80.16666666666666" stroke="#ccc" stroke-width="1" /><line x1="65" y1="271" x2="65" y2="276" stroke="black" stroke-width="1" /><text x="65" y="286" font-size="10" text-anchor="middle">0</text><line x1="133.2" y1="271" x2="133.2" y2="276" stroke="black" stroke-width="1" /><text x="133.2" y="286" font-size="10" text-anchor="middle">2</text><line x1="201.4" y1="271" x2="201.4" y2="276" stroke="black" stroke-width="1" /><text x="201.4" y="286" font-size="10" text-anchor="middle">4</text><line x1="269.6" y1="271" x2="269.6" y2="276" stroke="black" stroke-width="1" /><text x="269.6" y="286" font-size="10" text-anchor="middle">6</text><line x1="337.8" y1="271" x2="337.8" y2="276" stroke="black" stroke-width="1" /><text x="337.8" y="286" font-size="10" text-anchor="middle">8</text><line x1="406" y1="271" x2="406" y2="276" stroke="black" stroke-width="1" /><text x="406" y="286" font-size="10" text-anchor="middle">10</text><line x1="60" y1="271" x2="65" y2="271" stroke="black" stroke-width="1" /><text x="57" y="274.5" font-size="10" text-anchor="end">0</text><line x1="60" y1="223.29166666666666" x2="65" y2="223.29166666666666" stroke="black" stroke-width="1" /><text x="57" y="226.79166666666666" font-size="10" text-anchor="end">2.5</text><line x1="60" y1="175.58333333333331" x2="65" y2="175.58333333333331" stroke="black" stroke-width="1" /><text x="57" y="179.08333333333331" font-size="10" text-anchor="end">5</text><line x1="60" y1="127.875" x2="65" y2="127.875" stroke="black" stroke-width="1" /><text x="57" y="131.375" font-size="10" text-anchor="end">7.5</text><line x1="60" y1="80.16666666666666" x2="65" y2="80.16666666666666" stroke="black" stroke-width="1" /><text x="57" y="83.66666666666666" font-size="10" text-anchor="end">10</text><text x="210" y="21" font-size="16" text-anchor="middle">Period 1</text><circle cx="99.1" cy="238.55833333333334" r="4.5" fill="crimson" /><circle cx="133.2" cy="215.65833333333333" r="4.5" fill="crimson" /><circle cx="167.3" cy="192.75833333333333" r="4.5" fill="crimson" /><circle cx="201.4" cy="169.85833333333335" r="4.5" fill="crimson" /><circle cx="235.5" cy="146.95833333333334" r="4.5" fill="crimson" /><circle cx="269.6" cy="124.05833333333334" r="4.5" fill="crimson" /><circle cx="303.7" cy="101.15833333333333" r="4.5" fill="crimson" /><circle cx="337.8" cy="78.25833333333333" r="4.5" fill="crimson" /></g><text x="453" y="28" font-size="16" text-anchor="start" font-weight="bold">B</text><g transform="translate(445,345)"><line x1="65" y1="271" x2="406" y2="271" stroke="black" stroke-width="1" /><line x1="65" y1="42" x2="65" y2="271" stroke="black" stroke-width="1" /><line x1="133.2" y1="42" x2="133.2" y2="271" stroke="#ccc" stroke-width="1" /><line x1="201.4" y1="42" x2="201.4" y2="271" stroke="#ccc" stroke-width="1" /><line x1="269.6" y1="42" x2="269.6" y2="271" stroke="#ccc" stroke-width="1" /><line x1="337.8" y1="42" x2="337.8" y2="271" stroke="#ccc" stroke-width="1" /><line x1="406" y1="42" x2="406" y2="271" stroke="#ccc" stroke-width="1" /><line x1="65" y1="232.83333333333334" x2="406" y2="232.83333333333334" stroke="#ccc" stroke-width="1" /><line x1="65" y1="194.66666666666669" x2="406" y2="194.66666666666669" stroke="#ccc" stroke-width="1" /><line x1="65" y1="156.5" x2="406" y2="156.5" stroke="#ccc" stroke-width="1" /><line x1="65" y1="118.33333333333334" x2="406" y2="118.33333333333334" stroke="#ccc" stroke-width="1" /><line x1="65" y1="80.16666666666666" x2="406" y2="80.16666666666666" stroke="#ccc" stroke-width="1" /><line x1="65" y1="42" x2="406" y2="42" stroke="#ccc" stroke-width="1" /><line x1="65" y1="271" x2="65" y2="276" stroke="black" stroke-width="1" /><text x="65" y="286" font-size="10" text-anchor="middle">0</text><line x1="133.2" y1="271" x2="133.2" y2="276" stroke="black" stroke-width="1" /><text x="133.2" y="286" font-size="10" text-anchor="middle">2</text><line x1="201.4" y1="271" x2="201.4" y2="276" stroke="black" stroke-width="1" /><text x="201.4" y="286" font-size="10" text-anchor="middle">4</text><line x1="269.6" y1="271" x2="269.6" y2="276" stroke="black" stroke-width="1" /><text x="269.6" y="286" font-size="10" text-anchor="middle">6</text><line x1="337.8" y1="271" x2="337.8" y2="276" stroke="black" stroke-width="1" /><text x="337.8" y="286" font-size="10" text-anchor="middle">8</text><line x1="406" y1="271" x2="406" y2="276" stroke="black" stroke-width="1" /><text x="406" y="286" font-size="10" text-anchor="middle">10</text><line x1="60" y1="271" x2="65" y2="271" stroke="black" stroke-width="1" /><text x="57" y="274.5" font-size="10" text-anchor="end">0</text><line x1="60" y1="232.83333333333334" x2="65" y2="232.83333333333334" stroke="black" stroke-width="1" /><text x="57" y="236.33333333333334" font-size="10" text-anchor="end">1</text><line x1="60" y1="194.66666666666669" x2="65" y2="194.66666666666669" stroke="black" stroke-width="1" /><text x="57" y="198.16666666666669" font-size="10" text-anchor="end">2</text><line x1="60" y1="156.5" x2="65" y2="156.5" stroke="black" stroke-width="1" /><text x="57" y="160" font-size="10" text-anchor="end">3</text><line x1="60" y1="118.33333333333334" x2="65" y2="118.33333333333334" stroke="black" stroke-width="1" /><text x="57" y="121.83333333333334" font-size="10" text-anchor="end">4</text><line x1="60" y1="80.16666666666666" x2="65" y2="80.16666666666666" stroke="black" stroke-width="1" /><text x="57" y="83.66666666666666" font-size="10" text-anchor="end">5</text><line x1="60" y1="42" x2="65" y2="42" stroke="black" stroke-width="1" /><text x="57" y="45.5" font-size="10" text-anchor="end">6</text><text x="210" y="21" font-size="16" text-anchor="middle">Period 2</text><circle cx="99.1" cy="209.93333333333334" r="4.5" fill="seagreen" /><circle cx="133.2" cy="187.03333333333333" r="4.5" fill="seagreen" /><circle cx="167.3" cy="164.13333333333333" r="4.5" fill="seagreen" /><circle cx="201.4" cy="141.23333333333335" r="4.5" fill="seagreen" /><circle cx="235.5" cy="118.33333333333334" r="4.5" fill="seagreen" /><circle cx="269.6" cy="95.43333333333334" r="4.5" fill="seagreen" /><circle cx="303.7" cy="72.53333333333333" r="4.5" fill="seagreen" /><circle cx="337.8" cy="49.633333333333326" r="4.5" fill="seagreen" /></g><text x="453" y="363" font-size="16" text-anchor="start" font-weight="bold">C</text></svg>